<?xml version="1.0" encoding="UTF-8"?>
<!DOCTYPE svg PUBLIC "-//W3C//DTD SVG 1.1//EN" "http://www.w3.org/Graphics/SVG/1.1/DTD/svg11.dtd">
<svg version="1.1" xmlns="http://www.w3.org/2000/svg" xmlns:xlink="http://www.w3.org/1999/xlink" x="0" y="0" width="500" height="500" viewBox="0, 0, 500, 500">

<script>
function dgid(id) {return document.getElementById(id)}
function ga(it, id) {return it.getAttribute(id)}
function sa(it, id, to) {return it.setAttribute(id, to)}
function hello() {
	if (ga(dgid("Layer_1"), "class") == "Foo") {
	sa(dgid("Layer_1"), "class", "nil")
	}
	else {
	sa(dgid("Layer_1"), "class", "Foo")}
}
</script>

<style>
.Foo {
	opacity: 0.5;
}
</style>

  <g id="Layer_1" onclick="hello()">
<defs>
    <linearGradient id="Gradient_1" gradientUnits="userSpaceOnUse" x1="-80.561" y1="-18.97" x2="-63.954" y2="-18.97" gradientTransform="matrix(-0.49, -0.872, -0.872, 0.49, 0, 0)">
      <stop offset="0" stop-color="#5AD7FF"/>
      <stop offset="1" stop-color="#8A0088"/>
    </linearGradient>
    <linearGradient id="Gradient_2" gradientUnits="userSpaceOnUse" x1="-10.143" y1="53.111" x2="6.464" y2="53.111" gradientTransform="matrix(0.938, -0.346, 0.346, 0.938, 0, 0)">
      <stop offset="0" stop-color="#5AD7FF"/>
      <stop offset="1" stop-color="#8A0088"/>
    </linearGradient>
    <linearGradient id="Gradient_3" gradientUnits="userSpaceOnUse" x1="19.059" y1="25.598" x2="52.72" y2="25.598">
      <stop offset="0" stop-color="#FFC985"/>
      <stop offset="1" stop-color="#FDAF61"/>
    </linearGradient>
    <clipPath id="Clip_1">
      <path d="M37.61,8.854 C46.392,10.13 52.275,16.79 52.72,25.598 C52.595,33.925 46.823,40.462 38.792,42.1 L38.792,47.861 L33.025,47.861 L33.025,42.108 C24.738,40.726 19.47,33.747 19.059,25.598 C19.213,16.078 26.618,9.235 35.889,8.767 L37.61,8.854 z"/>
    </clipPath>
    <filter id="Shadow_2">
      <feGaussianBlur in="SourceAlpha" stdDeviation="1"/>
      <feOffset dx="0" dy="0" result="offsetblur"/>
      <feFlood flood-color="#FFFFFF"/>
      <feComposite in2="offsetblur" operator="in"/>
    </filter>
    <linearGradient id="Gradient_4" gradientUnits="userSpaceOnUse" x1="17.054" y1="10.617" x2="57.044" y2="10.617">
      <stop offset="0" stop-color="#482700"/>
      <stop offset="1" stop-color="#8A6700"/>
    </linearGradient>
    <clipPath id="Clip_3">
      <path d="M38.74,0 L38.74,7.904 L57.044,7.904 L57.044,21.234 L17.054,21.234 L17.054,7.904 L19.764,7.904 L19.764,0 L38.74,0 z"/>
    </clipPath>
    <filter id="Shadow_4">
      <feGaussianBlur in="SourceAlpha" stdDeviation="1"/>
      <feOffset dx="0" dy="0" result="offsetblur"/>
      <feFlood flood-color="#FFFFFF"/>
      <feComposite in2="offsetblur" operator="in"/>
    </filter>
    <linearGradient id="Gradient_5" gradientUnits="userSpaceOnUse" x1="14.128" y1="64.139" x2="48.536" y2="64.139">
      <stop offset="0" stop-color="#5AD7FF"/>
      <stop offset="1" stop-color="#8A0088"/>
    </linearGradient>
    <clipPath id="Clip_5">
      <path d="M48.536,45.385 L48.536,82.893 L23.242,82.893 L23.242,45.385 L48.536,45.385 z"/>
    </clipPath>
    <filter id="Shadow_6">
      <feGaussianBlur in="SourceAlpha" stdDeviation="1"/>
      <feOffset dx="0" dy="0" result="offsetblur"/>
      <feFlood flood-color="#FFFFFF"/>
      <feComposite in2="offsetblur" operator="in"/>
    </filter>
    <linearGradient id="Gradient_6" gradientUnits="userSpaceOnUse" x1="23.242" y1="87.701" x2="48.536" y2="87.701">
      <stop offset="0" stop-color="#480000"/>
      <stop offset="1" stop-color="#8A0000"/>
    </linearGradient>
    <clipPath id="Clip_7">
      <path d="M48.536,79.843 L48.536,95.559 L37.895,95.559 L37.895,90.401 L33.883,90.401 L33.883,95.559 L23.242,95.559 L23.242,84.455 L23.242,84.455 L23.242,79.843 L48.536,79.843 z"/>
    </clipPath>
    <filter id="Shadow_8">
      <feGaussianBlur in="SourceAlpha" stdDeviation="1"/>
      <feOffset dx="0" dy="0" result="offsetblur"/>
      <feFlood flood-color="#FFFFFF"/>
      <feComposite in2="offsetblur" operator="in"/>
    </filter>
    <linearGradient id="Gradient_7" gradientUnits="userSpaceOnUse" x1="26.458" y1="97.779" x2="41.805" y2="97.779">
      <stop offset="0" stop-color="#FF0000"/>
      <stop offset="1" stop-color="#000000"/>
      <stop offset="1" stop-color="#3A0000"/>
    </linearGradient>
    <clipPath id="Clip_9">
      <path d="M41.805,95.559 L41.805,100 L26.458,100 L26.458,95.559 L41.805,95.559 z"/>
    </clipPath>
    <filter id="Shadow_10">
      <feGaussianBlur in="SourceAlpha" stdDeviation="1"/>
      <feOffset dx="0" dy="0" result="offsetblur"/>
      <feFlood flood-color="#FFFFFF"/>
      <feComposite in2="offsetblur" operator="in"/>
    </filter>
    <linearGradient id="Gradient_9" gradientUnits="userSpaceOnUse" x1="0.5" y1="2.079" x2="33.662" y2="2.079">
      <stop offset="0" stop-color="#FF9B9B"/>
      <stop offset="1" stop-color="#FF48E7"/>
    </linearGradient>
    <linearGradient id="Gradient_10" gradientUnits="userSpaceOnUse" x1="0.5" y1="5.236" x2="33.662" y2="5.236">
      <stop offset="0" stop-color="#FF48E7"/>
      <stop offset="1" stop-color="#FF9B9B"/>
    </linearGradient>
    <linearGradient id="Gradient_11" gradientUnits="userSpaceOnUse" x1="0.5" y1="8.276" x2="33.662" y2="8.276">
      <stop offset="0" stop-color="#FF9B9B"/>
      <stop offset="1" stop-color="#FF48E7"/>
    </linearGradient>
    <linearGradient id="Gradient_12" gradientUnits="userSpaceOnUse" x1="0.5" y1="11.433" x2="33.662" y2="11.433">
      <stop offset="0" stop-color="#FF48E7"/>
      <stop offset="1" stop-color="#FF9B9B"/>
    </linearGradient>
    <pattern id="Pattern_8" patternUnits="userSpaceOnUse" x="32.985" y="47.692" width="33.162" height="12.512" patternTransform="matrix(0.42, -0.634, 0.634, 0.42, 0, 0)">
      <g transform="translate(0, 0)">
        <g>
          <path d="M0.5,0.5 L33.662,0.5 L33.662,3.657 L0.5,3.657 L0.5,0.5 z" fill="url(#Gradient_9)"/>
          <path d="M0.5,0.5 L33.662,0.5 L33.662,3.657 L0.5,3.657 L0.5,0.5 z" fill-opacity="0" stroke="#000000" stroke-width="1"/>
        </g>
        <g>
          <path d="M0.5,3.657 L33.662,3.657 L33.662,6.814 L0.5,6.814 L0.5,3.657 z" fill="url(#Gradient_10)"/>
          <path d="M0.5,3.657 L33.662,3.657 L33.662,6.814 L0.5,6.814 L0.5,3.657 z" fill-opacity="0" stroke="#000000" stroke-width="1"/>
        </g>
        <g>
          <path d="M0.5,6.697 L33.662,6.697 L33.662,9.855 L0.5,9.855 L0.5,6.697 z" fill="url(#Gradient_11)"/>
          <path d="M0.5,6.697 L33.662,6.697 L33.662,9.855 L0.5,9.855 L0.5,6.697 z" fill-opacity="0" stroke="#000000" stroke-width="1"/>
        </g>
        <g>
          <path d="M0.5,9.855 L33.662,9.855 L33.662,13.012 L0.5,13.012 L0.5,9.855 z" fill="url(#Gradient_12)"/>
          <path d="M0.5,9.855 L33.662,9.855 L33.662,13.012 L0.5,13.012 L0.5,9.855 z" fill-opacity="0" stroke="#000000" stroke-width="1"/>
        </g>
      </g>
    </pattern>
    <linearGradient id="Gradient_13" gradientUnits="userSpaceOnUse" x1="33.171" y1="44.007" x2="38.426" y2="44.007">
      <stop offset="0" stop-color="#7F7F7F"/>
      <stop offset="1" stop-color="#444444"/>
    </linearGradient>
    <linearGradient id="Gradient_14" gradientUnits="userSpaceOnUse" x1="32.399" y1="-37.843" x2="49.005" y2="-37.843" gradientTransform="matrix(-0.526, 0.85, -0.85, -0.526, 0, 0)">
      <stop offset="0" stop-color="#5AD7FF"/>
      <stop offset="1" stop-color="#8A0088"/>
    </linearGradient>
    <linearGradient id="Gradient_15" gradientUnits="userSpaceOnUse" x1="-54.108" y1="33.125" x2="-41.981" y2="33.125" gradientTransform="matrix(0.48, -0.877, 0.877, 0.48, 0, 0)">
      <stop offset="0" stop-color="#FFC985"/>
      <stop offset="1" stop-color="#FDAF61"/>
    </linearGradient>
    <linearGradient id="Gradient_16" gradientUnits="userSpaceOnUse" x1="67.875" y1="-28.287" x2="84.482" y2="-28.287" gradientTransform="matrix(0.908, 0.42, 0.42, -0.908, 0, 0)">
      <stop offset="0" stop-color="#5AD7FF"/>
      <stop offset="1" stop-color="#8A0088"/>
    </linearGradient>
    <linearGradient id="Gradient_17" gradientUnits="userSpaceOnUse" x1="-71.763" y1="58.234" x2="-59.635" y2="58.234" gradientTransform="matrix(-0.999, -0.033, -0.033, 0.999, 0, 0)">
      <stop offset="0" stop-color="#FFC985"/>
      <stop offset="1" stop-color="#FDAF61"/>
    </linearGradient>
    <linearGradient id="Gradient_18" gradientUnits="userSpaceOnUse" x1="36.731" y1="95.136" x2="52.077" y2="95.136">
      <stop offset="0" stop-color="#009EFF"/>
      <stop offset="1" stop-color="#004433"/>
    </linearGradient>
    <clipPath id="Clip_11">
      <path d="M52.077,92.915 L52.077,97.356 L36.73,97.356 L36.73,92.915 L52.077,92.915 z"/>
    </clipPath>
    <filter id="Shadow_12">
      <feGaussianBlur in="SourceAlpha" stdDeviation="1"/>
      <feOffset dx="0" dy="0" result="offsetblur"/>
      <feFlood flood-color="#FFFFFF"/>
      <feComposite in2="offsetblur" operator="in"/>
    </filter>
  </defs>
  <g id="JoeWalk-10" transform="translate(0.075, 0)">
    <g>
      <path d="M55.938,55.916 L49.951,45.277 L45.836,47.593 L51.822,58.232 L55.938,55.916 z" fill="url(#Gradient_1)"/>
      <path d="M49.951,45.277 L55.938,55.916 L51.822,58.232 L45.836,47.593 L49.951,45.277 z M49.57,46.639 L47.198,47.974 L52.203,56.87 L54.576,55.535 L49.57,46.639 z" fill="#000000"/>
    </g>
    <g>
      <path d="M12.157,49.606 L23.612,45.385 L25.245,49.816 L13.79,54.037 L12.157,49.606 z" fill="url(#Gradient_2)"/>
      <path d="M23.612,45.385 L25.245,49.816 L13.79,54.037 L12.157,49.606 L23.612,45.385 z M23.02,46.669 L13.441,50.199 L14.383,52.753 L23.961,49.224 L23.02,46.669 z" fill="#000000"/>
    </g>
    <g>
      <path d="M35.889,8.767 C45.184,8.767 52.72,16.302 52.72,25.598 C52.595,33.925 46.823,40.462 38.792,42.1 L38.792,47.861 L33.025,47.861 L33.025,42.108 C24.738,40.726 19.47,33.747 19.059,25.598 C19.059,16.302 26.594,8.767 35.889,8.767 z" fill="url(#Gradient_3)"/>
      <g>
        <path d="M16.059,5.767 L55.72,5.767 L55.72,50.861 L16.059,50.861 z M37.61,8.854 L35.889,8.767 C26.618,9.235 19.213,16.078 19.059,25.598 C19.47,33.747 24.738,40.726 33.025,42.108 L33.025,47.861 L38.792,47.861 L38.792,42.1 C46.823,40.462 52.595,33.925 52.72,25.598 C52.275,16.79 46.392,10.13 37.61,8.854 z" fill="rgba(0,0,0,0.5)" clip-path="url(#Clip_1)" filter="url(#Shadow_2)"/>
        <path d="M16.059,6.267 L55.72,6.267 L55.22,5.767 L55.22,50.861 L55.72,50.361 L16.059,50.361 L16.559,50.861 L16.559,5.767 L16.059,6.267 z M16.059,5.267 C15.783,5.267 15.559,5.491 15.559,5.767 L15.559,50.861 C15.559,51.137 15.783,51.361 16.059,51.361 L55.72,51.361 C55.996,51.361 56.22,51.137 56.22,50.861 L56.22,5.767 C56.22,5.491 55.996,5.267 55.72,5.267 L16.059,5.267 z M37.635,8.355 L35.914,8.268 C26.125,8.759 18.714,15.999 18.559,25.589 C18.996,34.289 24.673,41.222 32.943,42.601 L32.525,42.108 L32.525,47.861 C32.525,48.137 32.749,48.361 33.025,48.361 L38.792,48.361 C39.068,48.361 39.292,48.137 39.292,47.861 L39.292,42.1 L38.892,42.59 C47.26,40.883 53.093,34.062 53.22,25.605 C52.76,16.474 46.649,9.663 37.682,8.359 z M37.538,9.349 C46.03,10.583 51.785,16.999 52.22,25.623 C52.1,33.571 46.606,39.996 38.692,41.61 C38.459,41.658 38.292,41.863 38.292,42.1 L38.292,47.861 L38.792,47.361 L33.025,47.361 L33.525,47.861 L33.525,42.108 C33.525,41.864 33.348,41.655 33.107,41.615 C25.319,40.316 19.972,33.786 19.558,25.572 C19.705,16.554 26.69,9.732 35.914,9.266 L37.585,9.353 z" fill="rgba(0,0,0,0.5)" clip-path="url(#Clip_1)" filter="url(#Shadow_2)"/>
      </g>
      <path d="M37.61,8.854 C46.392,10.13 52.275,16.79 52.72,25.598 C52.595,33.925 46.823,40.462 38.792,42.1 L38.792,47.861 L33.025,47.861 L33.025,42.108 C24.738,40.726 19.47,33.747 19.059,25.598 C19.213,16.078 26.618,9.235 35.889,8.767 L37.61,8.854 z M35.889,9.767 C27.146,9.767 20.059,16.855 20.057,25.547 C20.46,33.534 25.642,39.863 33.189,41.122 L34.025,41.261 L34.025,46.861 L37.792,46.861 L37.792,41.283 L38.592,41.12 C46.279,39.553 51.604,33.326 51.72,25.598 C51.593,18.743 47.235,12.527 40.597,10.479 C39.592,10.169 38.537,10.059 37.508,9.849 L35.889,9.767 z" fill="#000000"/>
    </g>
    <g>
      <path d="M38.74,-0 L38.74,7.904 L57.044,7.904 L57.044,21.234 L17.054,21.234 L17.054,7.904 L19.764,7.904 L19.764,-0 L38.74,-0 z" fill="url(#Gradient_4)"/>
      <g>
        <path d="M14.054,-3 L60.044,-3 L60.044,24.234 L14.054,24.234 z M38.74,0 L19.764,0 L19.764,7.904 L17.054,7.904 L17.054,21.234 L57.044,21.234 L57.044,7.904 L38.74,7.904 L38.74,0 z" fill="rgba(0,0,0,0.5)" clip-path="url(#Clip_3)" filter="url(#Shadow_4)"/>
        <path d="M14.054,-2.5 L60.044,-2.5 L59.544,-3 L59.544,24.234 L60.044,23.734 L14.054,23.734 L14.554,24.234 L14.554,-3 L14.054,-2.5 z M14.054,-3.5 C13.777,-3.5 13.554,-3.276 13.554,-3 L13.554,24.234 C13.554,24.51 13.777,24.734 14.054,24.734 L60.044,24.734 C60.32,24.734 60.544,24.51 60.544,24.234 L60.544,-3 C60.544,-3.276 60.32,-3.5 60.044,-3.5 L14.054,-3.5 z M38.74,-0.5 L19.764,-0.5 C19.487,-0.5 19.264,-0.276 19.264,0 L19.264,7.904 L19.764,7.404 L17.054,7.404 C16.777,7.404 16.554,7.628 16.554,7.904 L16.554,21.234 C16.554,21.51 16.777,21.734 17.054,21.734 L57.044,21.734 C57.32,21.734 57.544,21.51 57.544,21.234 L57.544,7.904 C57.544,7.628 57.32,7.404 57.044,7.404 L38.74,7.404 L39.24,7.904 L39.24,0 C39.24,-0.276 39.016,-0.5 38.74,-0.5 z M38.74,0.5 L38.24,0 L38.24,7.904 C38.24,8.18 38.463,8.404 38.74,8.404 L57.044,8.404 L56.544,7.904 L56.544,21.234 L57.044,20.734 L17.054,20.734 L17.554,21.234 L17.554,7.904 L17.054,8.404 L19.764,8.404 C20.04,8.404 20.264,8.18 20.264,7.904 L20.264,0 L19.764,0.5 L38.74,0.5 z" fill="rgba(0,0,0,0.5)" clip-path="url(#Clip_3)" filter="url(#Shadow_4)"/>
      </g>
      <path d="M38.74,0 L38.74,7.904 L57.044,7.904 L57.044,21.234 L17.054,21.234 L17.054,7.904 L19.764,7.904 L19.764,0 L38.74,0 z M37.74,1 L20.764,1 L20.764,8.904 L18.054,8.904 L18.054,20.234 L56.044,20.234 L56.044,8.904 L37.74,8.904 L37.74,1 z" fill="#000000"/>
    </g>
    <g>
      <path d="M48.536,45.385 L48.536,82.893 L23.242,82.893 L23.242,45.385 z" fill="url(#Gradient_5)"/>
      <g>
        <path d="M20.242,42.385 L51.536,42.385 L51.536,85.893 L20.242,85.893 z M48.536,45.385 L23.242,45.385 L23.242,82.893 L48.536,82.893 L48.536,45.385 z" fill="rgba(0,0,0,0.5)" clip-path="url(#Clip_5)" filter="url(#Shadow_6)"/>
        <path d="M20.242,42.885 L51.536,42.885 L51.036,42.385 L51.036,85.893 L51.536,85.393 L20.242,85.393 L20.742,85.893 L20.742,42.385 L20.242,42.885 z M20.242,41.885 C19.966,41.885 19.742,42.109 19.742,42.385 L19.742,85.893 C19.742,86.169 19.966,86.393 20.242,86.393 L51.536,86.393 C51.812,86.393 52.036,86.169 52.036,85.893 L52.036,42.385 C52.036,42.109 51.812,41.885 51.536,41.885 L20.242,41.885 z M48.536,44.885 L23.242,44.885 C22.966,44.885 22.742,45.109 22.742,45.385 L22.742,82.893 C22.742,83.169 22.966,83.393 23.242,83.393 L48.536,83.393 C48.812,83.393 49.036,83.169 49.036,82.893 L49.036,45.385 C49.036,45.109 48.812,44.885 48.536,44.885 z M48.536,45.885 L48.036,45.385 L48.036,82.893 L48.536,82.393 L23.242,82.393 L23.742,82.893 L23.742,45.385 L23.242,45.885 L48.536,45.885 z" fill="rgba(0,0,0,0.5)" clip-path="url(#Clip_5)" filter="url(#Shadow_6)"/>
      </g>
      <path d="M48.536,45.385 L48.536,82.893 L23.242,82.893 L23.242,45.385 L48.536,45.385 z M47.536,46.385 L24.242,46.385 L24.242,81.893 L47.536,81.893 L47.536,46.385 z" fill="#000000"/>
    </g>
    <g>
      <path d="M48.536,79.843 L48.536,95.559 L37.895,95.559 L37.895,90.401 L33.883,90.401 L33.883,95.559 L23.242,95.559 L23.242,84.455 L23.242,84.455 L23.242,79.843 L48.536,79.843 z" fill="url(#Gradient_6)"/>
      <g>
        <path d="M20.242,76.843 L51.536,76.843 L51.536,98.559 L20.242,98.559 z M48.536,79.843 L23.242,79.843 L23.242,84.455 L23.242,84.455 L23.242,95.559 L33.883,95.559 L33.883,90.401 L37.895,90.401 L37.895,95.559 L48.536,95.559 L48.536,79.843 z" fill="rgba(0,0,0,0.5)" clip-path="url(#Clip_7)" filter="url(#Shadow_8)"/>
        <path d="M20.242,77.343 L51.536,77.343 L51.036,76.843 L51.036,98.559 L51.536,98.059 L20.242,98.059 L20.742,98.559 L20.742,76.843 L20.242,77.343 z M20.242,76.343 C19.966,76.343 19.742,76.567 19.742,76.843 L19.742,98.559 C19.742,98.835 19.966,99.059 20.242,99.059 L51.536,99.059 C51.812,99.059 52.036,98.835 52.036,98.559 L52.036,76.843 C52.036,76.567 51.812,76.343 51.536,76.343 L20.242,76.343 z M48.536,79.343 L23.242,79.343 C22.966,79.343 22.742,79.567 22.742,79.843 L22.742,84.455 L23.242,84.455 L23.242,83.955 L23.242,83.955 C22.966,83.955 22.742,84.179 22.742,84.455 L22.742,95.559 C22.742,95.835 22.966,96.059 23.242,96.059 L33.883,96.059 C34.159,96.059 34.383,95.835 34.383,95.559 L34.383,90.401 L33.883,90.901 L37.895,90.901 L37.395,90.401 L37.395,95.559 C37.395,95.835 37.619,96.059 37.895,96.059 L48.536,96.059 C48.812,96.059 49.036,95.835 49.036,95.559 L49.036,79.843 C49.036,79.567 48.812,79.343 48.536,79.343 z M48.536,80.343 L48.036,79.843 L48.036,95.559 L48.536,95.059 L37.895,95.059 L38.395,95.559 L38.395,90.401 C38.395,90.125 38.171,89.901 37.895,89.901 L33.883,89.901 C33.607,89.901 33.383,90.125 33.383,90.401 L33.383,95.559 L33.883,95.059 L23.242,95.059 L23.742,95.559 L23.742,84.455 L23.242,84.455 L23.242,84.955 L23.242,84.955 C23.519,84.955 23.742,84.731 23.742,84.455 L23.742,79.843 L23.242,80.343 L48.536,80.343 z" fill="rgba(0,0,0,0.5)" clip-path="url(#Clip_7)" filter="url(#Shadow_8)"/>
      </g>
      <path d="M48.536,79.843 L48.536,95.559 L37.895,95.559 L37.895,90.401 L33.883,90.401 L33.883,95.559 L23.242,95.559 L23.242,84.455 L23.242,84.455 L23.242,79.843 L48.536,79.843 z M47.536,80.843 L24.242,80.843 L24.242,85.455 L24.242,85.455 L24.242,94.559 L32.883,94.559 L32.883,89.401 L38.895,89.401 L38.895,94.559 L47.536,94.559 L47.536,80.843 z" fill="#000000"/>
    </g>
    <g>
      <path d="M26.458,95.559 L41.805,95.559 L41.805,100 L26.458,100 L26.458,95.559 z" fill="url(#Gradient_7)"/>
      <g>
        <path d="M23.458,92.559 L44.805,92.559 L44.805,103 L23.458,103 z M41.805,95.559 L26.458,95.559 L26.458,100 L41.805,100 L41.805,95.559 z" fill="rgba(0,0,0,0.5)" clip-path="url(#Clip_9)" filter="url(#Shadow_10)"/>
        <path d="M23.458,93.059 L44.805,93.059 L44.305,92.559 L44.305,103 L44.805,102.5 L23.458,102.5 L23.958,103 L23.958,92.559 L23.458,93.059 z M23.458,92.059 C23.182,92.059 22.958,92.283 22.958,92.559 L22.958,103 C22.958,103.276 23.182,103.5 23.458,103.5 L44.805,103.5 C45.081,103.5 45.305,103.276 45.305,103 L45.305,92.559 C45.305,92.283 45.081,92.059 44.805,92.059 L23.458,92.059 z M41.805,95.059 L26.458,95.059 C26.182,95.059 25.958,95.283 25.958,95.559 L25.958,100 C25.958,100.276 26.182,100.5 26.458,100.5 L41.805,100.5 C42.081,100.5 42.305,100.276 42.305,100 L42.305,95.559 C42.305,95.283 42.081,95.059 41.805,95.059 z M41.805,96.059 L41.305,95.559 L41.305,100 L41.805,99.5 L26.458,99.5 L26.958,100 L26.958,95.559 L26.458,96.059 L41.805,96.059 z" fill="rgba(0,0,0,0.5)" clip-path="url(#Clip_9)" filter="url(#Shadow_10)"/>
      </g>
      <path d="M41.805,95.559 L41.805,100 L26.458,100 L26.458,95.559 L41.805,95.559 z M40.805,96.559 L27.458,96.559 L27.458,99 L40.805,99 L40.805,96.559 z" fill="#000000"/>
    </g>
    <g>
      <path d="M25.853,28.727 C24.228,28.727 22.911,27.41 22.911,25.785 C22.911,24.161 24.228,22.843 25.853,22.843 C27.477,22.843 28.794,24.161 28.794,25.785 C28.794,27.41 27.477,28.727 25.853,28.727 z" fill="#FFFFFF"/>
      <path d="M25.853,28.727 C24.228,28.727 22.911,27.41 22.911,25.785 C22.911,24.161 24.228,22.843 25.853,22.843 C27.477,22.843 28.794,24.161 28.794,25.785 C28.794,27.41 27.477,28.727 25.853,28.727 z" fill-opacity="0" stroke="#000000" stroke-width="1"/>
    </g>
    <g>
      <path d="M26.732,26.718 C26.217,26.718 25.799,26.301 25.799,25.785 C25.799,25.27 26.217,24.853 26.732,24.853 C27.247,24.853 27.665,25.27 27.665,25.785 C27.665,26.301 27.247,26.718 26.732,26.718 z" fill="#000000"/>
      <path d="M26.732,26.718 C26.217,26.718 25.799,26.301 25.799,25.785 C25.799,25.27 26.217,24.853 26.732,24.853 C27.247,24.853 27.665,25.27 27.665,25.785 C27.665,26.301 27.247,26.718 26.732,26.718 z" fill-opacity="0" stroke="#000000" stroke-width="1"/>
    </g>
    <g>
      <path d="M45.926,28.727 C44.301,28.727 42.984,27.41 42.984,25.785 C42.984,24.161 44.301,22.843 45.926,22.843 C47.551,22.843 48.868,24.161 48.868,25.785 C48.868,27.41 47.551,28.727 45.926,28.727 z" fill="#FFFFFF"/>
      <path d="M45.926,28.727 C44.301,28.727 42.984,27.41 42.984,25.785 C42.984,24.161 44.301,22.843 45.926,22.843 C47.551,22.843 48.868,24.161 48.868,25.785 C48.868,27.41 47.551,28.727 45.926,28.727 z" fill-opacity="0" stroke="#000000" stroke-width="1"/>
    </g>
    <g>
      <path d="M46.669,26.718 C46.154,26.718 45.736,26.301 45.736,25.785 C45.736,25.27 46.154,24.853 46.669,24.853 C47.184,24.853 47.602,25.27 47.602,25.785 C47.602,26.301 47.184,26.718 46.669,26.718 z" fill="#000000"/>
      <path d="M46.669,26.718 C46.154,26.718 45.736,26.301 45.736,25.785 C45.736,25.27 46.154,24.853 46.669,24.853 C47.184,24.853 47.602,25.27 47.602,25.785 C47.602,26.301 47.184,26.718 46.669,26.718 z" fill-opacity="0" stroke="#000000" stroke-width="1"/>
    </g>
    <path d="M44.672,31.174 C43.82,35.505 40.039,38.64 35.625,38.675 C31.211,38.711 27.38,35.637 26.458,31.32" fill-opacity="0" stroke="#000000" stroke-width="1"/>
    <path d="M34.662,25.57 C34.662,25.57 42.275,33.8 34.405,33.852" fill-opacity="0" stroke="#000000" stroke-width="1"/>
    <g>
      <path d="M35.808,45.611 L37.186,59.219 L44.366,64.735 L45.487,55.316 C45.487,55.316 35.808,45.611 35.808,45.611 z" fill="url(#Pattern_12)"/>
      <path d="M35.808,45.611 L37.186,59.219 L44.366,64.735 L45.487,55.316 C45.487,55.316 35.808,45.611 35.808,45.611 z" fill-opacity="0" stroke="#000000" stroke-width="1"/>
    </g>
    <g>
      <path d="M33.171,42.629 L38.426,42.629 L38.426,45.385 L33.171,45.385 L33.171,42.629 z" fill="url(#Gradient_13)"/>
      <path d="M33.171,42.629 L38.426,42.629 L38.426,45.385 L33.171,45.385 L33.171,42.629 z" fill-opacity="0" stroke="#000000" stroke-width="1"/>
    </g>
    <g>
      <path d="M14.808,52.451 L8.381,62.83 L4.366,60.344 L10.793,49.965 L14.808,52.451 z" fill="url(#Gradient_14)"/>
      <path d="M10.793,49.965 L14.808,52.451 L8.381,62.83 L4.366,60.344 L10.793,49.965 z M11.117,51.342 L5.743,60.02 L8.057,61.454 L13.431,52.775 L11.117,51.342 z" fill="#000000"/>
    </g>
    <g>
      <path d="M8.347,62.02 L6.276,61.162 L2.455,63.006 L0.939,59.883 L5.326,60.151 L5.109,59.049 L0.925,57.909 L1.355,56.123 L5.548,57.746 L5.968,56.678 L3.289,54.284 L6.281,53.407 L6.952,56.178 L7.988,55.979 L8.65,52.572 L10.093,54.18 L9.45,56.505 L10.296,57.405 L12.877,57.05 L12.217,60.545 L10.541,59.505 L9.905,61.452 L8.347,62.02 z" fill="url(#Gradient_15)"/>
      <path d="M8.347,62.02 L6.276,61.162 L2.455,63.006 L0.939,59.883 L5.326,60.151 L5.109,59.049 L0.925,57.909 L1.355,56.123 L5.548,57.746 L5.968,56.678 L3.289,54.284 L6.281,53.407 L6.952,56.178 L7.988,55.979 L8.65,52.572 L10.093,54.18 L9.45,56.505 L10.296,57.405 L12.877,57.05 L12.217,60.545 L10.541,59.505 L9.905,61.452 L8.347,62.02 z" fill-opacity="0" stroke="#000000" stroke-width="1"/>
    </g>
    <g>
      <path d="M52.72,58.167 L63.799,63.294 L65.782,59.008 L54.703,53.882 L52.72,58.167 z" fill="url(#Gradient_16)"/>
      <path d="M54.703,53.882 L65.782,59.008 L63.799,63.294 L52.72,58.167 L54.703,53.882 z M55.19,55.209 L54.047,57.68 L63.311,61.967 L64.454,59.496 L55.19,55.209 z" fill="#000000"/>
    </g>
    <g>
      <path d="M65.998,64.379 L66.31,62.159 L69.84,59.805 L67.921,56.912 L65.922,60.827 L65.083,60.08 L66.228,55.897 L64.471,55.36 L63.739,59.796 L62.605,59.615 L61.905,56.091 L59.629,58.223 L61.674,60.208 L60.977,61 L57.706,59.838 L58.357,61.899 L60.687,62.526 L61.032,63.712 L59.414,65.755 L62.761,66.963 L62.716,64.991 L64.716,65.432 L65.998,64.379 z" fill="url(#Gradient_17)"/>
      <path d="M65.998,64.379 L66.31,62.159 L69.84,59.805 L67.921,56.912 L65.922,60.827 L65.083,60.08 L66.228,55.897 L64.471,55.36 L63.739,59.796 L62.605,59.615 L61.905,56.091 L59.629,58.223 L61.674,60.208 L60.977,61 L57.706,59.838 L58.357,61.899 L60.687,62.526 L61.032,63.712 L59.414,65.755 L62.761,66.963 L62.716,64.991 L64.716,65.432 L65.998,64.379 z" fill-opacity="0" stroke="#000000" stroke-width="1"/>
    </g>
    <g>
      <path d="M36.731,92.915 L52.077,92.915 L52.077,97.356 L36.731,97.356 L36.731,92.915 z" fill="url(#Gradient_18)"/>
      <g>
        <path d="M33.73,89.915 L55.077,89.915 L55.077,100.356 L33.73,100.356 z M52.077,92.915 L36.73,92.915 L36.73,97.356 L52.077,97.356 L52.077,92.915 z" fill="rgba(0,0,0,0.5)" clip-path="url(#Clip_11)" filter="url(#Shadow_12)"/>
        <path d="M33.73,90.415 L55.077,90.415 L54.577,89.915 L54.577,100.356 L55.077,99.856 L33.73,99.856 L34.23,100.356 L34.23,89.915 L33.73,90.415 z M33.73,89.415 C33.454,89.415 33.23,89.639 33.23,89.915 L33.23,100.356 C33.23,100.632 33.454,100.856 33.73,100.856 L55.077,100.856 C55.353,100.856 55.577,100.632 55.577,100.356 L55.577,89.915 C55.577,89.639 55.353,89.415 55.077,89.415 L33.73,89.415 z M52.077,92.415 L36.73,92.415 C36.454,92.415 36.23,92.639 36.23,92.915 L36.23,97.356 C36.23,97.632 36.454,97.856 36.73,97.856 L52.077,97.856 C52.353,97.856 52.577,97.632 52.577,97.356 L52.577,92.915 C52.577,92.639 52.353,92.415 52.077,92.415 z M52.077,93.415 L51.577,92.915 L51.577,97.356 L52.077,96.856 L36.73,96.856 L37.23,97.356 L37.23,92.915 L36.73,93.415 L52.077,93.415 z" fill="rgba(0,0,0,0.5)" clip-path="url(#Clip_11)" filter="url(#Shadow_12)"/>
      </g>
      <path d="M52.077,92.915 L52.077,97.356 L36.73,97.356 L36.73,92.915 L52.077,92.915 z M51.077,93.915 L37.73,93.915 L37.73,96.356 L51.077,96.356 L51.077,93.915 z" fill="#000000"/>
    </g>
  </g>
  </g>

</svg>